<?xml version="1.0" standalone="no"?>
<!DOCTYPE svg PUBLIC "-//W3C//DTD SVG 20010904//EN"
 "http://www.w3.org/TR/2001/REC-SVG-20010904/DTD/svg10.dtd">
<svg version="1.0" xmlns="http://www.w3.org/2000/svg"
 width="100.000000pt" height="100.000000pt" viewBox="0 0 100.000000 100.000000"
 preserveAspectRatio="xMidYMid meet">
<metadata>
Created by potrace 1.11, written by Peter Selinger 2001-2013
</metadata>
<g transform="translate(0.000000,100.000000) scale(0.100000,-0.100000)"
fill="#000000" stroke="none">
<path d="M266 875 c-14 -15 -16 -58 -16 -374 0 -344 1 -359 20 -376 22 -20 87
-16 102 7 4 7 8 70 8 139 l0 127 103 4 c125 5 179 28 220 92 23 37 30 62 41
140 5 39 -16 130 -36 160 -55 77 -103 94 -280 95 -122 2 -148 -1 -162 -14z
m281 -115 c53 -19 76 -95 54 -178 -15 -53 -54 -72 -150 -72 l-71 0 0 130 0
130 69 0 c37 0 81 -5 98 -10z"/>
</g>
</svg>
